# xmcd
#
# Track frame offsets:
#        150
#        12995
#        25202
#        38875
#        52092
#        68507
#        94462
#        107065
#        121810
#        134677
#
# Disc length: 1961 seconds
#
# Revision: 3
# Processed by: cddbd v1.5.1PL0 Copyright (c) Steve Scherf et al.
# Submitted via: ExactAudioCopy v0.95a5
#
DISCID=8907a70a
DTITLE=Otis Clay - Trying To Live My Life Without You
DYEAR=1900
DGENRE=blues
TTITLE0=Trying To Live My Life Without You
TTITLE1=I Die A Little Each Day
TTITLE2=Holding On To A Dying Love
TTITLE3=I Can't Make It Alone
TTITLE4=That's How It Is
TTITLE5=I Love You, I Need you
TTITLE6=You Can't Keep Running Form My Love
TTITLE7=Precious Precious
TTITLE8=Home Is Where The Heart Is
TTITLE9=Too Many Hands
EXTD=
EXTT0=
EXTT1=
EXTT2=
EXTT3=
EXTT4=
EXTT5=
EXTT6=
EXTT7=
EXTT8=
EXTT9=
PLAYORDER=
